<?xml version="1.0" encoding="utf-8"?>
<!-- Generator: Adobe Illustrator 22.0.1, SVG Export Plug-In . SVG Version: 6.00 Build 0)  -->
<svg version="1.1" id="Ebene_1" xmlns="http://www.w3.org/2000/svg" xmlns:xlink="http://www.w3.org/1999/xlink" x="0px" y="0px"
	 viewBox="0 0 43 36" style="enable-background:new 0 0 43 36;" xml:space="preserve">
<style type="text/css">
	.st0{opacity:0.5;fill:#FFFFFF;}
</style>
<path class="st0" d="M39.1,10.3c0-0.2-0.2-0.4-0.4-0.4h-1.1V8c0-0.2-0.2-0.4-0.4-0.4h-2.7l-0.1-0.3c-0.3-1.2-1.4-2-2.6-2
	c-0.8,0-1.5,0.3-2,0.9l-0.3,0.3l-0.3-0.3c-1-1.2-3-1.2-4,0l-0.3,0.3l-0.3-0.3c-1-1.2-3-1.2-4,0l-0.3,0.3L20,6.3c-1-1.2-3-1.2-4,0
	l-0.3,0.3l-0.3-0.3c-1-1.2-3-1.2-4,0l-0.3,0.3l-0.3-0.3c-0.5-0.6-1.2-0.9-2-0.9c-1.3,0-2.5,1-2.7,2.3l0,8.4h0v11.8
	c0,1.5,1.2,2.7,2.7,2.7c0.8,0,1.5-0.3,2-0.9l0.3-0.3l0.3,0.3c1,1.2,3,1.2,4,0l0.3-0.3l0.3,0.3c1,1.2,3,1.2,4,0l0.3-0.3l0.3,0.3
	c1,1.2,3,1.2,4,0l0.3-0.3l0.3,0.3c1,1.2,3,1.2,4,0l0.3-0.3l0.3,0.3c0.5,0.6,1.2,0.9,2,0.9c1.5,0,2.7-1.2,2.7-2.7V13h2.7
	c0.2,0,0.4-0.2,0.4-0.4v-1.9h1.1C38.9,10.7,39.1,10.5,39.1,10.3z M10.8,27.9c0,1-0.9,1.9-1.9,1.9c-1.1,0-1.9-0.9-1.9-1.9V8
	c0-1.1,0.9-1.9,1.9-1.9c1,0,1.9,0.9,1.9,1.9V27.9z M15.3,27.9c0,1-0.9,1.9-1.9,1.9c-1.1,0-1.9-0.9-1.9-1.9V8c0-1.1,0.9-1.9,1.9-1.9
	c1,0,1.9,0.9,1.9,1.9V27.9z M19.9,27.9c0,1-0.9,1.9-1.9,1.9c-1.1,0-1.9-0.9-1.9-1.9V8C16.1,7,17,6.1,18,6.1c1,0,1.9,0.9,1.9,1.9
	V27.9z M24.5,27.9c0,1-0.9,1.9-1.9,1.9s-1.9-0.9-1.9-1.9V8c0-1.1,0.9-1.9,1.9-1.9S24.5,7,24.5,8V27.9z M29.1,27.9
	c0,1-0.9,1.9-1.9,1.9s-1.9-0.9-1.9-1.9V8c0-1.1,0.9-1.9,1.9-1.9S29.1,7,29.1,8V27.9z M33.7,27.9c0,1-0.9,1.9-1.9,1.9
	s-1.9-0.9-1.9-1.9V8c0-1.1,0.9-1.9,1.9-1.9S33.7,7,33.7,8V27.9z M36.8,12.2h-2.3V8.4h2.3V12.2z"/>
</svg>
