<?xml version="1.0" encoding="utf-8"?>
<!-- Generator: Adobe Illustrator 22.0.1, SVG Export Plug-In . SVG Version: 6.00 Build 0)  -->
<svg version="1.1" id="Ebene_1" xmlns="http://www.w3.org/2000/svg" xmlns:xlink="http://www.w3.org/1999/xlink" x="0px" y="0px"
	 viewBox="0 0 43 36" style="enable-background:new 0 0 43 36;" xml:space="preserve">
<style type="text/css">
	.st0{fill:#FFFFFF;}
</style>
<path class="st0" d="M37.1,28.8H36V5.2c0-0.3-0.2-0.5-0.5-0.5h-26C9.2,4.7,9,4.9,9,5.2v23.6H7.1c-0.3,0-0.5,0.2-0.5,0.5v2.4
	c0,0.3,0.2,0.5,0.5,0.5h30c0.3,0,0.5-0.2,0.5-0.5v-2.4C37.6,29,37.4,28.8,37.1,28.8z M10,17.7C10,17.7,10,17.7,10,17.7l12.1,0
	L22,28.8H10V17.7z M23,17.7h12v11.1H23L23,17.7z M35,16.7H23.1l0.1-11H35V16.7z M22.1,5.7l-0.1,11H10c0,0,0,0,0,0v-11H22.1z
	 M36.6,31.2h-29v-1.4h29V31.2z"/>
</svg>
