<?xml version="1.0" encoding="utf-8"?>
<!-- Generator: Adobe Illustrator 22.0.1, SVG Export Plug-In . SVG Version: 6.00 Build 0)  -->
<svg version="1.1" id="Ebene_1" xmlns="http://www.w3.org/2000/svg" xmlns:xlink="http://www.w3.org/1999/xlink" x="0px" y="0px"
	 viewBox="0 0 44.9 36" style="enable-background:new 0 0 44.9 36;" xml:space="preserve">
<style type="text/css">
	.st0{fill:#FFFFFF;}
</style>
<g>
	<path class="st0" d="M43.8,3.2c-0.1-0.1-0.3-0.1-0.4-0.1l-8,2c0,0,0,0-0.1,0H9.5c0,0,0,0-0.1,0l-8-2c-0.1,0-0.3,0-0.4,0.1
		C0.9,3.3,0.8,3.4,0.8,3.6v28.5c0,0.2,0.1,0.3,0.2,0.4c0.1,0.1,0.2,0.1,0.3,0.1c0,0,0.1,0,0.1,0L7,31.2l0,1.5c0,0.3,0.2,0.5,0.5,0.5
		h29.8c0.1,0,0.3-0.1,0.4-0.1c0.1-0.1,0.1-0.2,0.1-0.4l0-1.5l5.6,1.4c0,0,0.1,0,0.1,0c0.1,0,0.2,0,0.3-0.1c0.1-0.1,0.2-0.2,0.2-0.4
		V3.6C44,3.4,44,3.3,43.8,3.2z M43,16.9h-7.2l0-2.9V6.1L43,4.2V16.9z M22.8,6.1h12l0,7.7v16l-0.8,0H22.8c0,0,0-0.1,0-0.1V6.1z
		 M10,6.1h11.8v23.6c0,0,0,0.1,0,0.1H10V6.1z M9,6.1v10.8H1.8V4.2L9,6.1z M1.8,17.9H9v11.8l-7.2,1.8V17.9z M8,32.2L8,31l1.5-0.2
		l10.5,0h15.3l1.5,0.2l0,1.2H8z M37.4,30.1C37.4,30.1,37.4,30.1,37.4,30.1L37.4,30.1l-1.6-0.4l0-11.8H43v13.7L37.4,30.1z"/>
</g>
</svg>
